<mxfile host="app.diagrams.net" modified="2023-12-14T02:51:54.166Z" agent="Mozilla/5.0 (Windows NT 10.0; Win64; x64) AppleWebKit/537.36 (KHTML, like Gecko) Chrome/120.0.0.0 Safari/537.36 Edg/120.0.0.0" version="22.1.8" etag="t69g6sCt6ixqKD5-Gs7I" type="github">
  <diagram name="第 1 页" id="l2h5RdTjPwFaGFu6QY_Q">
    <mxGraphModel>
      <root>
        <mxCell id="0" />
        <mxCell id="1" parent="0" />
      </root>
    </mxGraphModel>
  </diagram>
</mxfile>
